<?xml version="1.0" encoding="UTF-8"?>
<svg version="1.1" xmlns="http://www.w3.org/2000/svg" width="256" height="256">
<path d="M0 0 C4.270239 14.25602868 7.01348275 31.19252119 0 45 C-7.87541755 57.4484529 -19.37322017 67.7601407 -30 77.8125 C-31.07620354 78.83092232 -31.07620354 78.83092232 -32.17414856 79.86991882 C-41.27381706 88.4466509 -50.5526336 96.80854857 -60 105 C-55.55530461 110.61999886 -50.46365395 115.23542684 -45.08789062 119.92770386 C1.36408787 160.49157876 1.36408787 160.49157876 3.5625 179.1328125 C4.2257099 189.23725368 2.69617688 199.2768641 0 209 C-5.87630533 204.11487795 -11.30012702 198.86663389 -16.71484375 193.47802734 C-17.67298152 192.52780795 -18.63129437 191.57776507 -19.58976746 190.62788391 C-22.70936025 187.53426446 -25.82372342 184.43540938 -28.9375 181.3359375 C-30.01323886 180.26556452 -31.08898352 179.19519738 -32.16473389 178.12483597 C-36.63480942 173.67633386 -41.1034685 169.22641696 -45.56842041 164.77277184 C-51.95737825 158.40010626 -58.3547232 152.03612942 -64.7638483 145.68374479 C-69.27881522 141.20739425 -73.78423557 136.72157823 -78.28258419 132.22852862 C-80.96749806 129.54727346 -83.65646118 126.87039117 -86.35568237 124.20353317 C-88.88813903 121.70101855 -91.40861383 119.18704413 -93.92022133 116.66361046 C-95.28725635 115.29624767 -96.66671126 113.94133757 -98.0464325 112.58677673 C-98.85111465 111.77377609 -99.65579681 110.96077545 -100.48486328 110.12313843 C-101.1920047 109.41930716 -101.89914612 108.71547588 -102.62771606 107.99031639 C-104 106 -104 106 -103.96881104 104.01438713 C-102.70123813 101.37880346 -101.086664 99.71511852 -99.01416016 97.64666748 C-98.15598694 96.78292511 -97.29781372 95.91918274 -96.41363525 95.02926636 C-95.45558644 94.08023982 -94.49739057 93.13136173 -93.5390625 92.18261719 C-92.53498666 91.17775047 -91.53156408 90.17223065 -90.52874756 89.16610718 C-87.80420743 86.43643177 -85.07042504 83.71618719 -82.3347702 80.99765682 C-79.47674044 78.15465192 -76.62680598 75.30355426 -73.77587891 72.45343018 C-68.98905325 67.67029708 -64.19662506 62.89283825 -59.40039062 58.11914062 C-53.23567078 51.98332821 -47.08027413 45.83825029 -40.92776489 39.69019699 C-35.64641616 34.41282173 -30.3608102 29.13971633 -25.0745163 23.86729527 C-23.37097365 22.16785835 -21.66802304 20.46782986 -19.96514893 18.76772308 C-17.29514447 16.10259771 -14.62250735 13.44014032 -11.94776154 10.77977371 C-10.96365504 9.80020445 -9.9804009 8.81977808 -8.99803925 7.83845901 C-7.66295798 6.50511306 -6.32449991 5.17515079 -4.98583984 3.84539795 C-4.23587738 3.09841015 -3.48591492 2.35142235 -2.71322632 1.58179855 C-1 0 -1 0 0 0 Z " fill="#F90706" transform="translate(104,23)"/>
<path d="M0 0 C5.92707277 4.91550624 11.35903664 10.2235987 16.79077148 15.67724609 C17.7570939 16.64385111 18.72363761 17.61023494 19.69038391 18.57641602 C22.29543517 21.18118213 24.89740683 23.7890045 27.49880862 26.39741468 C30.22494639 29.12983338 32.95394486 31.85939199 35.68263245 34.58926392 C40.84097527 39.75070614 45.99676519 44.9146906 51.1516276 50.07960856 C57.02393537 55.9631208 62.89910663 61.84377008 68.77451217 67.72418857 C80.8528487 79.81295796 92.92761029 91.9052919 105 104 C103.51163783 107.45960825 101.54869995 109.70046901 98.89390564 112.35333252 C98.03435776 113.21707489 97.17480988 114.08081726 96.28921509 114.97073364 C95.33475212 115.91971362 94.38018944 116.86859333 93.42553711 117.81738281 C92.42152881 118.8224643 91.41795368 119.82797865 90.41477966 120.83389282 C87.69221077 123.56130581 84.96343836 126.28243331 82.23337626 129.00234318 C79.3798034 131.84713354 76.53150278 134.69719361 73.68251038 137.54656982 C68.90006049 142.32808349 64.11375444 147.10570924 59.32495117 151.88085938 C53.78092985 157.40913319 48.24217474 162.94263849 42.70638841 168.47915769 C37.38654804 173.79960731 32.06386143 179.11719934 26.7395649 184.43318939 C24.47045014 186.69876512 22.20219436 188.96519581 19.93458366 191.23227692 C17.26856591 193.89729382 14.60002561 196.55975877 11.92946815 199.22022629 C10.9469691 200.19979269 9.96532659 201.18021902 8.98458099 202.16154099 C7.65173437 203.49487464 6.31552321 204.82484252 4.97911072 206.15460205 C4.23044707 206.90158985 3.48178343 207.64857765 2.71043301 208.41820145 C1 210 1 210 0 210 C-2.44352541 194.68843417 -5.26868425 176.36998523 4.1710968 162.98550415 C11.50165392 153.72262984 20.36878407 145.83807755 29.20440674 138.04901123 C33.07817164 134.59134827 36.83541319 131.01128424 40.60546875 127.44140625 C47.96410039 120.50643929 55.43740146 113.71150224 63 107 C59.31476896 102.51824275 55.48951097 98.44670002 51.08642578 94.65527344 C49.9334237 93.64301359 48.78151032 92.62951268 47.63053894 91.61494446 C47.02990316 91.08633631 46.42926739 90.55772816 45.81043053 90.01310158 C-2.55784925 47.12685597 -2.55784925 47.12685597 -3.97320557 26.60092163 C-4.03848633 17.54168137 -2.57576205 8.66443251 0 0 Z " fill="#FA0706" transform="translate(150,22)"/>
<path d="M0 0 C8.58 0 17.16 0 26 0 C26.27817618 22.87037103 26.49213061 45.7403325 26.62174606 68.61205673 C26.68353779 79.23268085 26.76772885 89.85223244 26.90527344 100.47216797 C27.02514708 109.73215449 27.10236053 118.9913641 27.12906194 128.252105 C27.14466354 133.1529025 27.18113488 138.05147813 27.26876068 142.95156097 C27.35070559 147.57174514 27.37524589 152.18881044 27.35729218 156.80965233 C27.3605723 158.49797002 27.38416373 160.18640053 27.4304657 161.87408638 C27.64681308 170.17246069 27.51550389 176.20748641 21.61180234 182.48126435 C19.17468102 184.80699011 16.65884365 186.93049395 14 189 C8.06729314 186.35416512 3.60946175 182.38169581 0 177 C-1.40885839 171.18559427 -1.27069158 165.56775676 -1.13525391 159.61669922 C-1.13242914 157.87140567 -1.13402438 156.12610027 -1.13967896 154.3808136 C-1.14253569 149.66769084 -1.08395724 144.957139 -1.01393938 140.24461126 C-0.95121157 135.31067972 -0.94553538 130.3766821 -0.9336853 125.44241333 C-0.9026662 116.11007355 -0.8206914 106.77891226 -0.72019041 97.44709027 C-0.60822025 86.81844889 -0.55338508 76.18974972 -0.50323606 65.56066489 C-0.39885148 43.70643561 -0.22105669 21.85333376 0 0 Z " fill="#FD0605" transform="translate(114,66)"/>
<path d="M0 0 C5.13285928 2.62915165 9.45398082 5.62764129 11.93798828 10.99267578 C13.6345935 19.19614092 12.87613534 27.80332586 12.56298828 36.11767578 C12.5127747 38.43268394 12.46715664 40.74779662 12.42626953 43.06298828 C12.32512477 48.71091165 12.12953323 54.34422793 11.93798828 59.99267578 C3.35798828 59.99267578 -5.22201172 59.99267578 -14.06201172 59.99267578 C-14.3392376 53.37005751 -14.57732033 46.76786732 -14.72119141 40.14404297 C-14.78118323 37.89725254 -14.86281318 35.6509236 -14.96728516 33.40576172 C-15.90444659 12.73308299 -15.90444659 12.73308299 -9.91094971 5.96270752 C-3.68390449 -0.01308514 -3.68390449 -0.01308514 0 0 Z " fill="#FC0606" transform="translate(128.06201171875,0.00732421875)"/>
<path d="M0 0 C8.58 0 17.16 0 26 0 C26 58.41 26 116.82 26 177 C25.67 177 25.34 177 25 177 C25 118.92 25 60.84 25 1 C17.08 1 9.16 1 1 1 C1 58.42 1 115.84 1 175 C1.66 175 2.32 175 3 175 C4.6875 177.375 4.6875 177.375 6 180 C5.505 180.99 5.505 180.99 5 182 C1.76120587 179.31359466 0.15100811 177.82948883 -0.61523914 173.62048626 C-0.61063018 172.31983636 -0.60602121 171.01918646 -0.60127258 169.67912292 C-0.60554471 168.95206203 -0.60981683 168.22500114 -0.61421841 167.4759081 C-0.62244072 165.04474981 -0.59497876 162.6153249 -0.56762695 160.18432617 C-0.56621631 158.43976889 -0.56700879 156.69520863 -0.56983948 154.95065308 C-0.57127439 150.2173689 -0.54187243 145.48471793 -0.50696969 140.75158095 C-0.47571877 135.80417193 -0.47277645 130.85674848 -0.46684265 125.90925598 C-0.4513005 116.5417591 -0.41026695 107.1745539 -0.3600952 97.80718547 C-0.30421335 87.14225924 -0.27671814 76.4773191 -0.25161803 65.81228292 C-0.19935147 43.87468807 -0.11039504 21.93737268 0 0 Z " fill="#E60E0E" transform="translate(114,66)"/>
<path d="M0 0 C0.66 0.33 1.32 0.66 2 1 C2 1.66 2 2.32 2 3 C1.01 3 0.02 3 -1 3 C-1 18.18 -1 33.36 -1 49 C6.92 49 14.84 49 23 49 C22.67 32.83 22.34 16.66 22 0 C22.66 0.33 23.32 0.66 24 1 C24 17.17 24 33.34 24 50 C15.42 50 6.84 50 -2 50 C-2.04583922 43.20051629 -2.08568637 36.40156573 -2.10986328 29.60205078 C-2.11993892 27.28757921 -2.13359975 24.97312041 -2.15087891 22.65869141 C-2.17505865 19.33753307 -2.1864673 16.0165426 -2.1953125 12.6953125 C-2.20563507 11.65569366 -2.21595764 10.61607483 -2.22659302 9.54495239 C-2.22674408 8.58410736 -2.22689514 7.62326233 -2.22705078 6.63330078 C-2.231492 5.78502716 -2.23593323 4.93675354 -2.24050903 4.06277466 C-2 2 -2 2 0 0 Z " fill="#E21010" transform="translate(116,10)"/>
<path d="M0 0 C3.80635497 3.20760251 7.54563567 6.40746109 11 10 C9.46356148 13.68069887 7.21849055 15.98775204 4.375 18.75 C3.55773437 19.54921875 2.74046875 20.3484375 1.8984375 21.171875 C1.27195313 21.77515625 0.64546875 22.3784375 0 23 C-0.85709523 19.92605694 -1.15444061 18.04352525 0 15 C0.66 14.67 1.32 14.34 2 14 C1.85866501 12.22880197 1.71176792 10.45804713 1.5625 8.6875 C1.44068359 7.20830078 1.44068359 7.20830078 1.31640625 5.69921875 C1.08187441 2.90624401 1.08187441 2.90624401 0 0 Z " fill="#EA0E0E" transform="translate(244,116)"/>
<path d="M0 0 C1.11674511 0.95042087 2.23252489 1.90197608 3.34790039 2.85400391 C3.9693544 3.38377838 4.59080841 3.91355286 5.23109436 4.4593811 C7.39444368 6.34353861 9.42699013 8.32921803 11.4375 10.375 C12.11683594 11.06335937 12.79617187 11.75171875 13.49609375 12.4609375 C13.99238281 12.96882813 14.48867187 13.47671875 15 14 C14.01 14.495 14.01 14.495 13 15 C9.16960592 13.72320197 9.01242585 12.40564374 7 9 C5.35 7.35 3.7 5.7 2 4 C1.67 16.54 1.34 29.08 1 42 C1.66 42 2.32 42 3 42 C3.33 42.66 3.66 43.32 4 44 C6.02463255 44.65213292 6.02463255 44.65213292 8 45 C8 46.65 8 48.3 8 50 C6.85373678 49.02133662 5.70800212 48.04205413 4.5625 47.0625 C3.60537109 46.24458984 3.60537109 46.24458984 2.62890625 45.41015625 C1.73008851 44.63204305 0.84063472 43.84063472 0 43 C-0.09268999 41.64905018 -0.11747326 40.29332909 -0.11352539 38.93920898 C-0.11344986 38.07839218 -0.11337433 37.21757538 -0.11329651 36.33067322 C-0.10813522 35.39526199 -0.10297394 34.45985077 -0.09765625 33.49609375 C-0.0962413 32.54307877 -0.09482635 31.59006378 -0.09336853 30.60816956 C-0.08775152 27.55124835 -0.07519616 24.49439923 -0.0625 21.4375 C-0.05748719 19.37044376 -0.05292391 17.30338638 -0.04882812 15.23632812 C-0.03777656 10.15752412 -0.02050055 5.0787743 0 0 Z " fill="#E30E0D" transform="translate(150,22)"/>
<path d="M0 0 C0.66 0.33 1.32 0.66 2 1 C2 15.19 2 29.38 2 44 C0.35 42.35 -1.3 40.7 -3 39 C-1.68 39.33 -0.36 39.66 1 40 C0.67 26.8 0.34 13.6 0 0 Z " fill="#DD1011" transform="translate(102,188)"/>
<path d="M0 0 C0.33 0.66 0.66 1.32 1 2 C1.99 2.33 2.98 2.66 4 3 C0.37 6.63 -3.26 10.26 -7 14 C-7.66 12.68 -8.32 11.36 -9 10 C-8.125 7.75 -8.125 7.75 -7 6 C-6.01 6 -5.02 6 -4 6 C-3.34 5.34 -2.68 4.68 -2 4 C-1.34 4.33 -0.68 4.66 0 5 C-0.2784375 4.0409375 -0.2784375 4.0409375 -0.5625 3.0625 C-0.706875 2.381875 -0.85125 1.70125 -1 1 C-0.67 0.67 -0.34 0.34 0 0 Z " fill="#E11214" transform="translate(63,102)"/>
<path d="M0 0 C1.67542976 0.28604898 3.34385343 0.61781233 5 1 C1.32167983 5.52615993 -2.41086363 9.39424999 -7 13 C-7 11.02 -7 9.04 -7 7 C-5.35 7 -3.7 7 -2 7 C-2 6.34 -2 5.68 -2 5 C-1.34 5 -0.68 5 0 5 C-0.2784375 4.0409375 -0.2784375 4.0409375 -0.5625 3.0625 C-0.706875 2.381875 -0.85125 1.70125 -1 1 C-0.67 0.67 -0.34 0.34 0 0 Z " fill="#DF1314" transform="translate(79,86)"/>
<path d="M0 0 C0.33 1.32 0.66 2.64 1 4 C0.195625 4.4125 -0.60875 4.825 -1.4375 5.25 C-4.17024507 6.69686084 -4.17024507 6.69686084 -4.5 9.0625 C-4.665 9.701875 -4.83 10.34125 -5 11 C-7.89111788 12.52164099 -9.71823412 13 -13 13 C-8.71 8.71 -4.42 4.42 0 0 Z " fill="#D51412" transform="translate(20,106)"/>
<path d="M0 0 C1.32 0.33 2.64 0.66 4 1 C1.36 3.64 -1.28 6.28 -4 9 C-4.92538169 5.29847322 -5.08174162 4.36541838 -4 1 C-2.02 1.495 -2.02 1.495 0 2 C0 1.34 0 0.68 0 0 Z " fill="#E21116" transform="translate(92,75)"/>
<path d="M0 0 C5.29012124 4.40843437 10.18808428 9.07559794 15 14 C14.01 14.495 14.01 14.495 13 15 C10 14 10 14 8.75 11.8125 C6.73072343 8.56723409 4.43200501 6.73259183 1.42578125 4.4296875 C0 3 0 3 0 0 Z " fill="#D31B1C" transform="translate(150,22)"/>
<path d="M0 0 C4.13621084 3.3810038 7.81316569 6.66590534 11 11 C8.76509481 9.99814595 7.17430711 9.1888327 5.5 7.375 C3.847706 5.54951691 3.847706 5.54951691 0 6 C0 4.02 0 2.04 0 0 Z " fill="#DE0F0F" transform="translate(50,136)"/>
<path d="M0 0 C1.12894876 0.93274109 2.25300876 1.87140122 3.375 2.8125 C4.00148438 3.33457031 4.62796875 3.85664063 5.2734375 4.39453125 C7 6 7 6 9 9 C8.401875 8.67 7.80375 8.34 7.1875 8 C4.94613529 6.79212012 4.94613529 6.79212012 2 7 C0.25 5.1875 0.25 5.1875 -1 3 C-0.67 2.01 -0.34 1.02 0 0 Z " fill="#E11013" transform="translate(73,159)"/>
<path d="M0 0 C0.33 1.32 0.66 2.64 1 4 C0.34 4 -0.32 4 -1 4 C-1.33 5.32 -1.66 6.64 -2 8 C-3.98 8.33 -5.96 8.66 -8 9 C-7.04270084 7.87411986 -6.08412105 6.7493285 -5.125 5.625 C-4.59132813 4.99851562 -4.05765625 4.37203125 -3.5078125 3.7265625 C-2.38567993 2.44163349 -1.20628025 1.20628025 0 0 Z " fill="#DA1111" transform="translate(70,56)"/>
<path d="M0 0 C0.886875 0.309375 1.77375 0.61875 2.6875 0.9375 C5.46709155 1.8290671 8.13136375 2.49377007 11 3 C10.505 3.433125 10.01 3.86625 9.5 4.3125 C7.66781808 5.99740483 7.66781808 5.99740483 8 9 C6.66368764 7.6905332 5.33102075 6.37734515 4 5.0625 C3.2575 4.33160156 2.515 3.60070312 1.75 2.84765625 C0 1 0 1 0 0 Z " fill="#DC0D0F" transform="translate(173,87)"/>
<path d="M0 0 C-2.31 2.31 -4.62 4.62 -7 7 C-8.04449911 3.86650268 -7.93423645 3.01031744 -7 0 C-2.25 -1.125 -2.25 -1.125 0 0 Z " fill="#DE1416" transform="translate(51,121)"/>
<path d="M0 0 C1.9375 0.875 1.9375 0.875 3.9375 3.875 C0.5625 4.5 0.5625 4.5 -3.0625 4.875 C-3.7225 4.215 -4.3825 3.555 -5.0625 2.875 C-2.63475434 -0.15968208 -2.63475434 -0.15968208 0 0 Z " fill="#E21214" transform="translate(128.0625,0.125)"/>
<path d="M0 0 C0.33 0 0.66 0 1 0 C1 2.97 1 5.94 1 9 C1.66 9 2.32 9 3 9 C4.6875 11.375 4.6875 11.375 6 14 C5.67 14.66 5.34 15.32 5 16 C2.71195063 14.34116421 1.43536563 13.37716693 0 11 C-0.44207004 7.29701335 -0.29251428 3.71168123 0 0 Z " fill="#DB1515" transform="translate(114,232)"/>
<path d="M0 0 C1.14926266 0.95421808 2.29430541 1.91352045 3.4375 2.875 C4.07558594 3.40867188 4.71367188 3.94234375 5.37109375 4.4921875 C7 6 7 6 8 8 C4.66666667 6.33333333 1.33333333 4.66666667 -2 3 C-1.34 2.01 -0.68 1.02 0 0 Z " fill="#DE0F14" transform="translate(42,128)"/>
<path d="M0 0 C0.66 0 1.32 0 2 0 C2.33 1.65 2.66 3.3 3 5 C1.68 5.99 0.36 6.98 -1 8 C-1.625 5.6875 -1.625 5.6875 -2 3 C-1.34 2.01 -0.68 1.02 0 0 Z " fill="#E90F0D" transform="translate(56,108)"/>
<path d="M0 0 C0.33 1.32 0.66 2.64 1 4 C0.34 4 -0.32 4 -1 4 C-1.33 4.99 -1.66 5.98 -2 7 C-3.32 6.67 -4.64 6.34 -6 6 C-4.02 4.02 -2.04 2.04 0 0 Z " fill="#D91110" transform="translate(54,72)"/>
<path d="M0 0 C0.66 1.32 1.32 2.64 2 4 C0.1875 5.0625 0.1875 5.0625 -2 6 C-2.99 5.67 -3.98 5.34 -5 5 C-3.35 3.35 -1.7 1.7 0 0 Z " fill="#DD100F" transform="translate(84,42)"/>
<path d="M0 0 C2.97 0.495 2.97 0.495 6 1 C6.33 2.98 6.66 4.96 7 7 C5.83040013 6.02433888 4.66438823 5.044375 3.5 4.0625 C2.8503125 3.51722656 2.200625 2.97195312 1.53125 2.41015625 C1.0259375 1.94480469 0.520625 1.47945312 0 1 C0 0.67 0 0.34 0 0 Z " fill="#DB1511" transform="translate(89,217)"/>
<path d="M0 0 C0.598125 0.309375 1.19625 0.61875 1.8125 0.9375 C4.08956772 2.10209704 4.08956772 2.10209704 7 3 C7.33 4.65 7.66 6.3 8 8 C6.85073734 7.04578192 5.70569459 6.08647955 4.5625 5.125 C3.92441406 4.59132813 3.28632813 4.05765625 2.62890625 3.5078125 C1 2 1 2 0 0 Z " fill="#D30F15" transform="translate(191,105)"/>
<path d="M0 0 C2.31 1.98 4.62 3.96 7 6 C5.68 6.33 4.36 6.66 3 7 C1.79371992 4.66785852 0.8345262 2.50357861 0 0 Z " fill="#D41214" transform="translate(95,181)"/>
</svg>
